<?xml version="1.0" encoding="UTF-8" standalone="no"?>
<svg
   xmlns:dc="http://purl.org/dc/elements/1.1/"
   xmlns:cc="http://creativecommons.org/ns#"
   xmlns:rdf="http://www.w3.org/1999/02/22-rdf-syntax-ns#"
   xmlns:svg="http://www.w3.org/2000/svg"
   xmlns="http://www.w3.org/2000/svg"
   xmlns:sodipodi="http://sodipodi.sourceforge.net/DTD/sodipodi-0.dtd"
   xmlns:inkscape="http://www.inkscape.org/namespaces/inkscape"
   inkscape:version="1.0 (4035a4fb49, 2020-05-01)"
   sodipodi:docname="Star TV 1990.svg"
   viewBox="0 0 698 433"
   height="433"
   width="698"
   id="svg10"
   version="1.1">
  <metadata
     id="metadata16">
    <rdf:RDF>
      <cc:Work
         rdf:about="">
        <dc:format>image/svg+xml</dc:format>
        <dc:type
           rdf:resource="http://purl.org/dc/dcmitype/StillImage" />
        <dc:title></dc:title>
      </cc:Work>
    </rdf:RDF>
  </metadata>
  <defs
     id="defs14" />
  <sodipodi:namedview
     inkscape:current-layer="g18"
     inkscape:window-maximized="1"
     inkscape:window-y="-9"
     inkscape:window-x="-9"
     inkscape:cy="214.46567"
     inkscape:cx="307.79286"
     inkscape:zoom="0.94572748"
     showgrid="false"
     id="namedview12"
     inkscape:window-height="1001"
     inkscape:window-width="1920"
     inkscape:pageshadow="2"
     inkscape:pageopacity="0"
     guidetolerance="10"
     gridtolerance="10"
     objecttolerance="10"
     borderopacity="1"
     bordercolor="#666666"
     pagecolor="#ffffff" />
  <g
     id="g18"
     inkscape:label="Image"
     inkscape:groupmode="layer">
    <path
       sodipodi:nodetypes="ccccccccccccccc"
       id="path22"
       d="m 598.54016,192.32521 -12.87537,55.53255 h -22.34255 l 14.76881,-55.53255 h -21.96387 l 5.11228,-17.21129 h 71.95058 l 4.54424,45.64272 h 3.31351 l 27.36016,-45.64272 h 18.17699 l -39.9515,72.74384 H 620.8827 l -7.95243,-55.53255 z"
       style="fill:#000000;stroke:none;stroke-width:1.01519px;stroke-linecap:butt;stroke-linejoin:miter;stroke-opacity:1" />
    <path
       sodipodi:nodetypes="cssccsccc"
       id="path847"
       d="m 71.373626,191.6514 c 0,0 -28.285103,-3.70085 -28.285103,5.55129 0,9.25213 26.915264,13.90225 24.536143,33.72826 -2.379121,19.82601 -34.254284,19.85361 -54.750476,17.89678 l 2.379121,-15.33211 c 0,0 21.736757,7.2924 32.329106,-3.4148 2.10959,-2.13246 -25.59353,-29.06779 -25.59353,-29.06779 0,0 -3.350168,-33.12539 52.125582,-24.82591 z"
       style="display:inline;fill:#000000;stroke:#000000;stroke-width:1px;stroke-linecap:butt;stroke-linejoin:miter;stroke-opacity:1" />
    <path
       sodipodi:nodetypes="ccccccccc"
       id="path849"
       d="m 121.3512,192.42371 -11.11195,56.4314 H 86.315861 l 13.491078,-56.4314 H 74.958343 l 3.156126,-16.23659 h 69.258851 l -3.02395,16.23659 z"
       style="fill:#000000;stroke:none;stroke-width:1px;stroke-linecap:butt;stroke-linejoin:miter;stroke-opacity:1" />
    <path
       sodipodi:nodetypes="ccccccccccccc"
       id="path851"
       d="m 147.85482,248.32506 29.34666,-51.30992 5.04688,15.14064 -1.86922,4.11227 h -9.8507 l -8.59838,15.70139 h 23.12212 l 2.80382,16.35562 h 24.11286 L 199.2582,175.70611 h -34.39354 l -41.30962,72.61895 z"
       style="fill:#000000;fill-opacity:1;stroke:none;stroke-width:1px;stroke-linecap:butt;stroke-linejoin:miter;stroke-opacity:1" />
    <path
       sodipodi:nodetypes="ccccscccccscc"
       id="path853"
       d="m 240.55555,249.279 h -24.98076 l 16.65384,-73.62057 46.52503,0.52869 c 0,0 16.78602,6.07997 12.68865,23.79121 -4.09738,17.71123 -20.48688,21.80861 -20.48688,21.80861 l 10.83822,27.49206 h -20.75122 l -11.8956,-36.34768 11.63125,-0.52869 c 0,0 16.28577,-0.7764 12.75473,-15.19995 -2.417,-9.87291 -21.67643,-5.22084 -21.67643,-5.22084 z"
       style="fill:#000000;stroke:none;stroke-width:1px;stroke-linecap:butt;stroke-linejoin:miter;stroke-opacity:1" />
    <g
       transform="matrix(0.37663668,0,0,0.3793138,324.99865,26.236873)"
       id="g10"
       inkscape:label="Image">
      <path
         sodipodi:nodetypes="ccccccccccc"
         id="path839"
         d="M 10,393.59086 318.15788,629.00946 199.41743,1010 510.61226,773.84921 818.11703,1009.5207 722.17554,707.56661 563.73635,587.76938 405.93976,710.94358 466.33157,513.62863 308.75763,393.33799 Z"
         style="opacity:1;fill:#000000;fill-opacity:1;fill-rule:evenodd;stroke-width:41.4724;stroke-linejoin:round" />
      <path
         sodipodi:nodetypes="ccccc"
         id="path841"
         d="M 518.77253,15.272679 398.23066,397.38321 512.32207,397.15449 575.35341,200.99033 Z"
         style="opacity:1;fill:#000000;fill-opacity:1;fill-rule:evenodd;stroke-width:41.4724;stroke-linejoin:round" />
    </g>
  </g>
</svg>
